{"title":"The Human Centipede 3 (Final Sequence) 1080P WEB-DL","uid":12089036,"size":3816402543,"categoryP":"video","categoryS":"hd___movies","magnet":"?xt=urn:btih:035024797988977a4e529c057bb5d9d1bf1f94f3&amp;dn=The+Human+Centipede+3+%28Final+Sequence%29+1080P+WEB-DL&amp;tr=udp%3A%2F%2Ftracker.openbittorrent.com%3A80&amp;tr=udp%3A%2F%2Fopen.demonii.com%3A1337&amp;tr=udp%3A%2F%2Ftracker.coppersurfer.tk%3A6969&amp;tr=udp%3A%2F%2Fexodus.desync.com%3A6969","seeders":6,"leechers":1,"uploader":"jmanwf","files":2,"time":1435984982,"description":"500 prisoners, one body: the world's most deranged medical experiment reaches new heights in this final installment of the notoriously shocking trilogy. Stars Eric Roberts.\n\n\nideo\nID : 2\nFormat : AVC\nFormat/Info : Advanced Video Codec\nFormat profile : High@L4\nFormat settings, CABAC : Yes\nFormat settings, ReFrames : 5 frames\nCodec ID : avc1\nCodec ID/Info : Advanced Video Coding\nDuration : 1h 42mn\nBit rate : 4 443 Kbps\nWidth : 1 920 pixels\nHeight : 814 pixels\nDisplay aspect ratio : 2.35:1\nFrame rate mode : Constant\nFrame rate : 24.000 fps\nColor space : YUV\nChroma subsampling : 4:2:0\nBit depth : 8 bits\nScan type : Progressive\nBits/(Pixel*Frame) : 0.118\nStream size : 3.19 GiB (90%)\nLanguage : English\nEncoded date : UTC 2015-07-03 10:50:47\nTagged date : UTC 2015-07-03 10:58:08\nColor range : Limited\nColor primaries : BT.709\nTransfer characteristics : BT.709\nMatrix coefficients : BT.709\n\nAudio #1\nID : 1\nFormat : AAC\nFormat/Info : Advanced Audio Codec\nFormat profile : LC\nCodec ID : 40\nDuration : 1h 42mn\nDuration_LastFrame : -10ms\nBit rate mode : Variable\nBit rate : 123 Kbps\nMaximum bit rate : 224 Kbps\nChannel(s) : 2 channels\nChannel positions : Front: L R\nSampling rate : 48.0 KHz\nCompression mode : Lossy\nStream size : 90.7 MiB (2%)\nLanguage : English\nEncoded date : UTC 2015-07-03 10:50:47\nTagged date : UTC 2015-07-03 10:58:08\n\nAudio #2\nID : 3\nFormat : AC-3\nFormat/Info : Audio Coding 3\nMode extension : CM (complete main)\nFormat settings, Endianness : Big\nCodec ID : ac-3\nDuration : 1h 42mn\nBit rate mode : Constant\nBit rate : 384 Kbps\nChannel(s) : 6 channels\nChannel positions : Front: L C R, Side: L R, LFE\nSampling rate : 48.0 KHz\nBit depth : 16 bits\nCompression mode : Lossy\nStream size : 282 MiB (8%)\nLanguage : English\nEncoded date : UTC 2015-07-03 10:50:47\nTagged date : UTC 2015-07-03 10:58:08\n\nText\nID : 4-CC1\nFormat : EIA-608\nMuxing mode : Final Cut\nCodec ID : c608\nDuration : 1h 41mn\nBit rate mode : Constant\nStream size : 0.00 Byte (0%)\nLanguage : English\nEncoded date : UTC 2015-07-03 10:50:47\nTagged date : UTC 2015-07-03 10:56:47\n\n\n &lt;a href=&quot;\nhttps://itunes.apple.com/us/movie/human-centipede-3-final-sequence/id991481217&quot; rel=&quot;nofollow&quot; target=&quot;_NEW&quot;&gt;\nhttps://itunes.apple.com/us/movie/human-centipede-3-final-sequence/id991481217&lt;/a&gt;","torrent":{"xt":"urn:btih:035024797988977a4e529c057bb5d9d1bf1f94f3","amp;dn":"The+Human+Centipede+3+%28Final+Sequence%29+1080P+WEB-DL","amp;tr":["udp%3A%2F%2Ftracker.openbittorrent.com%3A80","udp%3A%2F%2Fopen.demonii.com%3A1337","udp%3A%2F%2Ftracker.coppersurfer.tk%3A6969","udp%3A%2F%2Fexodus.desync.com%3A6969"],"infoHash":"035024797988977a4e529c057bb5d9d1bf1f94f3","infoHashBuffer":{"type":"Buffer","data":[3,80,36,121,121,136,151,122,78,82,156,5,123,181,217,209,191,31,148,243]},"announce":[],"urlList":[]}}